<svg width="197" height="154" viewBox="0 0 197 154" fill="none" xmlns="http://www.w3.org/2000/svg">
<path d="M66.5907 108.667H162.187L114.388 25.88L66.5907 108.667ZM184.312 121.44H44.4653L114.388 0.33342L184.312 121.44Z" fill="white"/>
<path d="M35.1466 108.667H51.8399L74.98 68.5868L66.6333 54.1334L35.1466 108.667ZM59.216 121.44H13.0213L66.6333 28.5868L89.7306 68.5868L59.216 121.44Z" fill="white"/>
<path d="M135.312 61.6802C129.664 56.0402 124.223 56.2268 116.691 56.4802C115.125 56.5335 113.507 56.5869 111.835 56.5869C99.7373 56.5869 94.7307 45.0002 93.7747 38.8669L106.388 36.8536C106.4 36.9203 107.631 43.8135 111.835 43.8135C113.289 43.8135 114.731 43.7603 116.255 43.707C124.935 43.4137 134.773 43.0803 144.345 52.6536L135.312 61.6802Z" fill="white"/>
<path d="M1.78927 150.12H13.9653V153.787H1.78927V150.12ZM1.78927 141.907H12.4346V145.587H1.78927V141.907ZM1.78927 133.56H13.9653V137.227H1.78927V133.56ZM0.411926 133.56H4.22397V153.787H0.411926V133.56Z" fill="white"/>
<path d="M28.0546 154C28.0546 154 27.592 153.907 26.6693 153.707C25.7466 153.507 24.8799 153.227 24.0679 152.853C23.2559 152.48 22.5306 152.027 21.8893 151.493L23.6573 148.347C24.4373 148.987 25.336 149.48 26.3573 149.827C27.3773 150.173 28.4253 150.36 29.5013 150.36C30.7453 150.36 31.7093 150.147 32.396 149.72C33.0827 149.293 33.4253 148.707 33.4253 147.933V147.92C33.4253 147.387 33.272 146.96 32.9666 146.64C32.66 146.32 32.2613 146.093 31.7693 145.947C31.2773 145.8 30.6466 145.667 29.8773 145.547L29.8 145.52L29.724 145.507L29.4173 145.467C28.0626 145.253 26.9413 144.987 26.0506 144.667C25.1599 144.347 24.404 143.787 23.7826 142.987C23.1613 142.187 22.8506 141.04 22.8506 139.573V139.56C22.8506 138.253 23.1427 137.133 23.7267 136.2C24.3107 135.28 25.1599 134.573 26.2733 134.08C27.3866 133.6 28.7306 133.347 30.308 133.347C31.032 133.347 31.772 133.44 32.528 133.6C33.284 133.773 34.024 134.013 34.7466 134.32C35.4706 134.64 36.1573 135.027 36.8066 135.467L35.192 138.693C34.4133 138.16 33.5999 137.733 32.7506 137.44C31.9013 137.147 31.088 137 30.308 137C29.1386 137 28.2346 137.187 27.5946 137.573C26.9546 137.96 26.6346 138.493 26.6346 139.2V139.213C26.6346 139.787 26.8026 140.253 27.136 140.587C27.4706 140.933 27.8826 141.173 28.3746 141.333C28.8653 141.493 29.5573 141.667 30.4466 141.84L30.5586 141.853L30.6693 141.88L30.8306 141.92L30.9906 141.947C32.2706 142.2 33.3386 142.507 34.1973 142.867C35.056 143.213 35.772 143.8 36.3466 144.587C36.9226 145.373 37.2093 146.467 37.2093 147.84V147.867C37.2093 149.147 36.9093 150.253 36.3053 151.173C35.7026 152.093 34.8239 152.8 33.6679 153.28C32.5146 153.76 31.1239 154 29.5013 154C28.5359 154 28.0546 154 28.0546 154Z" fill="white"/>
<path d="M50.4226 154C50.4226 154 49.8759 153.707 48.7813 153.12C47.6866 152.533 46.852 151.667 46.2773 150.547C45.7013 149.413 45.4146 148.053 45.4146 146.453V140.907C45.4146 139.307 45.7013 137.947 46.2773 136.827C46.852 135.693 47.6866 134.84 48.7813 134.24C49.8759 133.653 51.1933 133.347 52.7333 133.347C54.004 133.347 55.14 133.627 56.1413 134.173C57.144 134.72 57.972 135.52 58.6253 136.56C59.2786 137.6 59.732 138.867 59.9826 140.333H56.0306C55.8826 139.667 55.6519 139.093 55.3426 138.627C55.0306 138.147 54.6559 137.787 54.2146 137.547C53.7746 137.293 53.28 137.16 52.7333 137.16C52.0186 137.16 51.4106 137.307 50.9106 137.6C50.4093 137.893 50.0266 138.32 49.7613 138.88C49.4986 139.44 49.3653 140.12 49.3653 140.907V146.453C49.3653 147.24 49.4986 147.92 49.7613 148.48C50.0266 149.027 50.4093 149.453 50.9106 149.747C51.4106 150.04 52.0186 150.187 52.7333 150.187C53.2893 150.187 53.7906 150.067 54.236 149.813C54.6813 149.573 55.056 149.213 55.3627 148.747C55.668 148.267 55.8906 147.693 56.0306 147.013H59.9826C59.7226 148.493 59.2666 149.747 58.6106 150.787C57.9586 151.84 57.1319 152.627 56.1346 153.173C55.1386 153.72 54.004 154 52.7333 154C51.1933 154 50.4226 154 50.4226 154Z" fill="white"/>
<path d="M70.092 146.88H80.7373V150.547H70.092V146.88ZM74.1133 133.56H76.5346L84.2706 153.787H80.1666L75.324 139.974L70.4813 153.787H66.3773L74.1133 133.56Z" fill="white"/>
<path d="M94.172 150.12H106.028V153.787H94.172V150.12ZM92.4747 133.56H96.288V153.787H92.4747V133.56Z" fill="white"/>
<path d="M116.555 146.88H127.199V150.547H116.555V146.88ZM120.576 133.56H122.997L130.733 153.787H126.629L121.787 139.974L116.944 153.787H112.84L120.576 133.56Z" fill="white"/>
<path d="M141.108 135.213H144.92V153.787H141.108V135.213ZM135.597 133.56H150.431V137.227H135.597V133.56Z" fill="white"/>
<path d="M166.58 149.747C167.099 149.453 167.5 149.04 167.784 148.507C168.067 147.96 168.207 147.347 168.207 146.64V140.707C168.207 140.013 168.067 139.387 167.784 138.853C167.5 138.307 167.099 137.893 166.58 137.6C166.06 137.307 165.457 137.16 164.771 137.16C164.084 137.16 163.481 137.307 162.963 137.6C162.443 137.893 162.041 138.307 161.757 138.853C161.475 139.387 161.335 140.013 161.335 140.707V146.64C161.335 147.347 161.475 147.96 161.757 148.507C162.041 149.04 162.443 149.453 162.963 149.747C163.481 150.04 164.084 150.187 164.771 150.187C165.457 150.187 166.06 150.04 166.58 149.747ZM160.896 153.08C159.777 152.453 158.913 151.587 158.301 150.453C157.689 149.333 157.383 148.027 157.383 146.547V140.813C157.383 139.32 157.689 138.013 158.301 136.893C158.913 135.76 159.777 134.893 160.896 134.28C162.013 133.653 163.305 133.347 164.771 133.347C166.237 133.347 167.528 133.653 168.645 134.28C169.763 134.893 170.629 135.76 171.241 136.893C171.853 138.013 172.159 139.32 172.159 140.813V146.547C172.159 148.027 171.853 149.333 171.241 150.453C170.629 151.587 169.763 152.453 168.645 153.08C167.528 153.693 166.237 154 164.771 154C163.305 154 162.013 153.693 160.896 153.08Z" fill="white"/>
<path d="M187.389 145.027L191.467 144.387L196.92 153.787H192.303L187.389 145.027ZM183.132 141.974H190.173C190.563 141.974 190.905 141.88 191.201 141.68C191.499 141.493 191.729 141.214 191.891 140.854C192.053 140.494 192.139 140.067 192.148 139.6C192.148 139.12 192.068 138.707 191.905 138.347C191.743 137.987 191.513 137.707 191.216 137.507C190.919 137.32 190.572 137.213 190.173 137.213H183.132V133.547H190.479C191.592 133.547 192.571 133.8 193.415 134.293C194.259 134.8 194.913 135.507 195.376 136.413C195.84 137.333 196.072 138.387 196.072 139.6C196.072 140.8 195.84 141.867 195.376 142.774C194.913 143.694 194.256 144.4 193.408 144.893C192.559 145.4 191.584 145.654 190.479 145.654H183.132V141.974ZM181.616 133.547H185.428V153.787H181.616V133.547Z" fill="white"/>
</svg>
